# xmcd
#
# Track frame offsets:
#	150
#	15939
#	35074
#	56542
#	78691
#	104190
#	119809
#	139184
#	157456
#	178708
#	198041
#
# Disc length: 2934 seconds
#
# Revision: 0
# Processed by: cddbd v1.4PL0 Copyright (c) Steve Scherf et al.
# Submitted via: dBpowerAMP V4.0
#
DISCID=a20b740b
DTITLE=Various Artist - Land of the Wizard - A Tribute to Ozzy
DYEAR=1900
DGENRE=
TTITLE0=Souless - The Ultimate Sin
TTITLE1=Sanctorum - Bark at the Moon
TTITLE2=Coffin Texts - Suicide Solution
TTITLE3=Anno Demonicus - Waiting for Darkness
TTITLE4=Ion Vein - Mr Crowley
TTITLE5=Killwitch - Steal Away the Night
TTITLE6=Deceased - S.A.T.O.
TTITLE7=Decay of Salvation . Believer
TTITLE8=Tyrant - Over the Mountain
TTITLE9=Vile - Flying High Again
TTITLE10=October 31 - I Don't Know
EXTD=
EXTT0=
EXTT1=
EXTT2=
EXTT3=
EXTT4=
EXTT5=
EXTT6=
EXTT7=
EXTT8=
EXTT9=
EXTT10=
PLAYORDER=
